<svg width="36" height="32" viewBox="0 0 36 32" fill="none" xmlns="http://www.w3.org/2000/svg">
<path d="M33 2H3C1.34375 2 0 3.34375 0 5V27C0 28.6562 1.34375 30 3 30H33C34.6562 30 36 28.6562 36 27V5C36 3.34375 34.6562 2 33 2ZM33 27H3V5H33V27ZM13 16C15.2063 16 17 14.2063 17 12C17 9.79375 15.2063 8 13 8C10.7937 8 9 9.79375 9 12C9 14.2063 10.7937 16 13 16ZM7.4 24H18.6C19.375 24 20 23.4625 20 22.8V21.6C20 19.6125 18.1187 18 15.8 18C15.125 18 14.6313 18.5 13 18.5C11.3188 18.5 10.9125 18 10.2 18C7.88125 18 6 19.6125 6 21.6V22.8C6 23.4625 6.625 24 7.4 24ZM22.5 20H29.5C29.775 20 30 19.775 30 19.5V18.5C30 18.225 29.775 18 29.5 18H22.5C22.225 18 22 18.225 22 18.5V19.5C22 19.775 22.225 20 22.5 20ZM22.5 16H29.5C29.775 16 30 15.775 30 15.5V14.5C30 14.225 29.775 14 29.5 14H22.5C22.225 14 22 14.225 22 14.5V15.5C22 15.775 22.225 16 22.5 16ZM22.5 12H29.5C29.775 12 30 11.775 30 11.5V10.5C30 10.225 29.775 10 29.5 10H22.5C22.225 10 22 10.225 22 10.5V11.5C22 11.775 22.225 12 22.5 12Z" fill="black" fill-opacity="0.3"/>
</svg>
