<svg width="36" height="36" viewBox="0 0 36 36" fill="none" xmlns="http://www.w3.org/2000/svg">
<path d="M3 30V25.8C3 24.95 3.2125 24.169 3.6375 23.457C4.0625 22.745 4.65 22.201 5.4 21.825C6.9 21.075 8.4565 20.5 10.0695 20.1C11.6825 19.7 13.326 19.5 15 19.5C15.625 19.5 16.25 19.544 16.875 19.632C17.5 19.72 18.125 19.826 18.75 19.95V22.3125C17.625 22.8625 16.719 23.5875 16.032 24.4875C15.345 25.3875 15.001 26.5625 15 28.0125V30H3ZM18 30V27.9C18 27.3 18.1565 26.744 18.4695 26.232C18.7825 25.72 19.226 25.351 19.8 25.125C20.7 24.75 21.6315 24.469 22.5945 24.282C23.5575 24.095 24.526 24.001 25.5 24C26.474 23.999 27.443 24.093 28.407 24.282C29.371 24.471 30.302 24.752 31.2 25.125C31.775 25.35 32.219 25.719 32.532 26.232C32.845 26.745 33.001 27.301 33 27.9V30H18ZM25.5 22.5C24.45 22.5 23.5625 22.1375 22.8375 21.4125C22.1125 20.6875 21.75 19.8 21.75 18.75C21.75 17.7 22.1125 16.8125 22.8375 16.0875C23.5625 15.3625 24.45 15 25.5 15C26.55 15 27.4375 15.3625 28.1625 16.0875C28.8875 16.8125 29.25 17.7 29.25 18.75C29.25 19.8 28.8875 20.6875 28.1625 21.4125C27.4375 22.1375 26.55 22.5 25.5 22.5ZM15 18C13.35 18 11.9375 17.4125 10.7625 16.2375C9.5875 15.0625 9 13.65 9 12C9 10.35 9.5875 8.9375 10.7625 7.7625C11.9375 6.5875 13.35 6 15 6C16.65 6 18.0625 6.5875 19.2375 7.7625C20.4125 8.9375 21 10.35 21 12C21 13.65 20.4125 15.0625 19.2375 16.2375C18.0625 17.4125 16.65 18 15 18Z" fill="black" fill-opacity="0.3"/>
</svg>
